#!OML:ASF E:\Style4\Style4.ASF
:FULLY-SPECIFIED
:DEGREES
3052
root 0.0933938 17.7511 -0.7455 0.178847 -1.07358 2.87618
lowerback 5.28051 2.12869 -1.08317
upperback 0.992296 2.76229 -0.540078
thorax -1.96114 1.38281 -0.138292
lowerneck -1.8935 -4.56296 -6.20922
upperneck 7.37933 -6.10636 3.86624
head 3.06861 -3.08668 2.14523
rclavicle -1.41137e-014 -5.96354e-015
rhumerus -51.7899 16.4362 -93.9845
rradius 83.72
rwrist -36.5686
rhand -25.9228 30.9474
rfingers 7.12502
rthumb 0.620334 0.968548
lclavicle -1.41137e-014 -5.96354e-015
lhumerus -53.5169 -25.0869 98.8685
lradius 84.7612
lwrist 23.7275
lhand -12.6233 19.4095
lfingers 7.12502
lthumb 13.4563 48.9549
rfemur -10.9948 3.68477 15.2138
rtibia 32.4378
rfoot -20.2342 -12.5956
rtoes -12.9702
lfemur -8.40609 -3.29044 -22.352
ltibia 28.4581
lfoot -20.5632 9.56948
ltoes -13.2717
3053
root 0.0895842 17.7492 -0.749425 0.181051 -1.0407 2.96076
lowerback 5.22967 2.15754 -1.1694
upperback 1.02526 2.79623 -0.582768
thorax -1.90107 1.39995 -0.13335
lowerneck -1.94339 -4.60554 -6.20496
upperneck 7.40371 -6.16385 3.90108
head 3.09112 -3.11365 2.15275
rclavicle 9.88954e-015 -1.70955e-014
rhumerus -51.6124 16.3745 -93.8893
rradius 83.7524
rwrist -36.5377
rhand -25.9299 30.9876
rfingers 7.12502
rthumb 0.613479 1.00877
lclavicle 9.88954e-015 -1.70955e-014
lhumerus -53.3207 -25.0718 98.6804
lradius 84.8808
lwrist 23.6654
lhand -12.5292 19.1653
lfingers 7.12502
lthumb 13.547 48.7046
rfemur -11.0341 3.60722 15.1209
rtibia 32.4955
rfoot -20.3031 -12.5207
rtoes -12.7945
lfemur -8.39951 -3.34272 -22.432
ltibia 28.42
lfoot -20.5344 9.59817
ltoes -13.4486
3054
root 0.0852065 17.7476 -0.750951 0.124999 -0.966605 3.0176
lowerback 5.21482 2.16252 -1.22593
upperback 1.07143 2.79987 -0.615507
thorax -1.84641 1.40176 -0.133807
lowerneck -1.93082 -4.63341 -6.1479
upperneck 7.39888 -6.20198 3.86834
head 3.08521 -3.13203 2.13005
rclavicle 2.23633e-016 -8.94531e-015
rhumerus -51.4928 16.3454 -93.8262
rradius 83.8095
rwrist -36.4741
rhand -26.0575 31.0236
rfingers 7.12502
rthumb 0.490245 1.04445
lclavicle 2.23633e-016 -8.94531e-015
lhumerus -53.1347 -25.0589 98.5075
lradius 85.0072
lwrist 23.6759
lhand -12.78 19.3478
lfingers 7.12502
lthumb 13.3053 48.903
rfemur -10.9844 3.49367 15.064
rtibia 32.5539
rfoot -20.4022 -12.4363
rtoes -12.7418
lfemur -8.31588 -3.38547 -22.484
ltibia 28.3662
lfoot -20.5313 9.59607
ltoes -13.5369
3055
root 0.0803574 17.7485 -0.749165 0.0371249 -0.901079 3.02108
lowerback 5.23545 2.1662 -1.25342
upperback 1.09799 2.80324 -0.612304
thorax -1.83212 1.40347 -0.115605
lowerneck -1.90445 -4.65248 -6.15291
upperneck 7.46985 -6.22865 3.84685
head 3.10537 -3.1467 2.12287
rclavicle -2.72583e-014 1.39149e-014
rhumerus -51.4371 16.3014 -93.7706
rradius 83.8471
rwrist -36.3938
rhand -26.1628 30.9299
rfingers 7.12502
rthumb 0.388492 0.950544
lclavicle -2.72583e-014 1.39149e-014
lhumerus -53.0438 -25.0531 98.4106
lradius 85.1229
lwrist 23.7284
lhand -13.0202 19.7364
lfingers 7.12502
lthumb 13.0738 49.3066
rfemur -10.8635 3.4643 15.0778
rtibia 32.5928
rfoot -20.4978 -12.3705
rtoes -12.4533
lfemur -8.1869 -3.36836 -22.4789
ltibia 28.3335
lfoot -20.5333 9.55869
ltoes -13.5208
3056
root 0.0742931 17.7504 -0.749072 -0.0107563 -0.906968 3.02251
lowerback 5.23582 2.17978 -1.29436
upperback 1.11748 2.81944 -0.605416
thorax -1.81475 1.41164 -0.0863416
lowerneck -1.91931 -4.66116 -6.1812
upperneck 7.52069 -6.2398 3.85517
head 3.12796 -3.1529 2.12985
rclavicle 2.00027e-014 -1.21259e-014
rhumerus -51.3442 16.3422 -93.7251
rradius 83.8634
rwrist -36.3641
rhand -26.2824 30.9163
rfingers 7.12502
rthumb 0.272998 0.936709
lclavicle 2.00027e-014 -1.21259e-014
lhumerus -52.9117 -25.0199 98.3019
lradius 85.202
lwrist 23.7231
lhand -12.9955 20.1007
lfingers 7.12502
lthumb 13.0976 49.6694
rfemur -10.8008 3.51083 15.0999
rtibia 32.5917
rfoot -20.5343 -12.3231
rtoes -12.2056
lfemur -8.12472 -3.33857 -22.4691
ltibia 28.3272
lfoot -20.4724 9.5467
ltoes -13.5622
3057
root 0.0684596 17.7496 -0.750493 -0.0509756 -0.884914 3.05075
lowerback 5.20726 2.18342 -1.33534
upperback 1.15664 2.82283 -0.618182
thorax -1.75991 1.41323 -0.0745839
lowerneck -2.01794 -4.66821 -6.23559
upperneck 7.63179 -6.2473 3.90731
head 3.19016 -3.15618 2.15465
rclavicle -3.73218e-014 -8.15017e-015
rhumerus -51.2193 16.374 -93.6829
rradius 83.8665
rwrist -36.3837
rhand -26.3274 30.9921
rfingers 7.12502
rthumb 0.229578 1.01252
lclavicle -3.73218e-014 -8.15017e-015
lhumerus -52.7458 -25.0144 98.1676
lradius 85.3293
lwrist 23.7644
lhand -13.3189 20.6115
lfingers 7.12502
lthumb 12.7858 50.2
rfemur -10.75 3.50175 15.0964
rtibia 32.5692
rfoot -20.4615 -12.4037
rtoes -12.562
lfemur -8.10359 -3.31507 -22.4872
ltibia 28.3347
lfoot -20.383 9.55536
ltoes -13.6234
3058
root 0.0633331 17.7491 -0.751224 -0.102369 -0.827619 2.99549
lowerback 5.16916 2.18644 -1.28986
upperback 1.19423 2.83073 -0.606669
thorax -1.6985 1.41674 -0.0860964
lowerneck -2.08586 -4.67792 -6.29288
upperneck 7.75762 -6.26097 3.96751
head 3.2527 -3.16271 2.18307
rclavicle 1.27595e-014 2.78299e-015
rhumerus -51.1233 16.3018 -93.6425
rradius 83.8777
rwrist -36.3606
rhand -26.2618 30.9709
rfingers 7.12502
rthumb 0.292851 0.991379
lclavicle 1.27595e-014 2.78299e-015
lhumerus -52.6586 -24.9921 98.0496
lradius 85.4807
lwrist 23.7726
lhand -13.8002 21.0178
lfingers 7.12502
lthumb 12.3217 50.6348
rfemur -10.672 3.47178 15.1903
rtibia 32.5388
rfoot -20.4046 -12.5237
rtoes -12.7383
lfemur -8.06648 -3.32142 -22.4131
ltibia 28.3517
lfoot -20.3282 9.60877
ltoes -14.1836
3059
root 0.0584814 17.7492 -0.752928 -0.14771 -0.814376 2.99711
lowerback 5.1677 2.2245 -1.29491
upperback 1.20316 2.88105 -0.618463
thorax -1.6886 1.44181 -0.0984269
lowerneck -2.06593 -4.68595 -6.25061
upperneck 7.84138 -6.27647 3.96373
head 3.27663 -3.16989 2.17358
rclavicle 1.67725e-015 -2.04748e-014
rhumerus -51.0916 16.196 -93.6082
rradius 83.923
rwrist -36.3909
rhand -26.2787 30.9382
rfingers 7.12502
rthumb 0.276566 0.958616
lclavicle 1.67725e-015 -2.04748e-014
lhumerus -52.6603 -25.0252 98.0165
lradius 85.6447
lwrist 23.9622
lhand -14.1102 21.0258
lfingers 7.12502
lthumb 12.0228 50.6605
rfemur -10.6081 3.44244 15.2065
rtibia 32.5078
rfoot -20.4015 -12.5274
rtoes -12.7972
lfemur -8.02595 -3.29123 -22.3992
ltibia 28.3637
lfoot -20.2612 9.66061
ltoes -14.7369
3060
root 0.0541938 17.7486 -0.755145 -0.176361 -0.784126 3.02562
lowerback 5.17235 2.25441 -1.32489
upperback 1.19474 2.91887 -0.630744
thorax -1.70103 1.46084 -0.0972558
lowerneck -1.98757 -4.70188 -6.2011
upperneck 7.85567 -6.30329 3.94131
head 3.26493 -3.1833 2.15734
rclavicle 8.69683e-017 -1.19271e-015
rhumerus -51.086 16.1024 -93.5784
rradius 83.9422
rwrist -36.4539
rhand -26.3178 30.9909
rfingers 7.12502
rthumb 0.238841 1.01124
lclavicle 8.69683e-017 -1.19271e-015
lhumerus -52.7576 -25.0008 97.9921
lradius 85.8956
lwrist 24.1583
lhand -13.5561 20.5769
lfingers 7.12502
lthumb 12.5571 50.1796
rfemur -10.5637 3.40548 15.1912
rtibia 32.4726
rfoot -20.3225 -12.5625
rtoes -13.0097
lfemur -7.99988 -3.31035 -22.4149
ltibia 28.3578
lfoot -20.3005 9.62023
ltoes -14.4052
3061
root 0.0504594 17.7483 -0.757299 -0.189226 -0.732468 3.02595
lowerback 5.15542 2.26346 -1.32356
upperback 1.19899 2.9312 -0.641697
thorax -1.68669 1.46694 -0.109185
lowerneck -1.97438 -4.72432 -6.13448
upperneck 7.86509 -6.33417 3.89872
head 3.26238 -3.19815 2.12977
rclavicle -1.91082e-014 7.95139e-015
rhumerus -51.0507 16.0316 -93.5693
rradius 83.9309
rwrist -36.5308
rhand -26.3138 31.0151
rfingers 7.12502
rthumb 0.242682 1.03554
lclavicle -1.91082e-014 7.95139e-015
lhumerus -52.7904 -24.8487 97.8244
lradius 86.1294
lwrist 23.9962
lhand -13.2223 20.4258
lfingers 7.12502
lthumb 12.8789 50.0084
rfemur -10.5271 3.33651 15.2021
rtibia 32.4485
rfoot -20.331 -12.5183
rtoes -12.9296
lfemur -7.98927 -3.32781 -22.3919
ltibia 28.3495
lfoot -20.3849 9.45359
ltoes -13.5366
3062
root 0.046142 17.7475 -0.760564 -0.21796 -0.65062 2.9689
lowerback 5.16266 2.24629 -1.27239
upperback 1.22067 2.91152 -0.624227
thorax -1.66665 1.45684 -0.11823
lowerneck -2.01906 -4.71524 -6.08409
upperneck 7.89149 -6.31979 3.86546
head 3.27519 -3.19022 2.10909
rclavicle -1.63376e-014 1.51076e-014
rhumerus -50.9488 15.9878 -93.5566
rradius 83.8599
rwrist -36.5623
rhand -26.2991 31.1656
rfingers 7.12502
rthumb 0.256888 1.18597
lclavicle -1.63376e-014 1.51076e-014
lhumerus -52.7191 -24.5554 97.6355
lradius 86.2384
lwrist 23.7394
lhand -13.3778 20.3979
lfingers 7.12502
lthumb 12.729 49.9899
rfemur -10.4672 3.30082 15.2883
rtibia 32.4146
rfoot -20.3343 -12.5953
rtoes -13.0054
lfemur -7.97621 -3.39441 -22.3023
ltibia 28.3643
lfoot -20.4387 9.31531
ltoes -13.1375
